<?xml version="1.0" encoding="utf-8"?>
<!-- Generator: Adobe Illustrator 22.1.0, SVG Export Plug-In . SVG Version: 6.00 Build 0)  -->
<svg version="1.1" id="Слой_1" xmlns="http://www.w3.org/2000/svg" xmlns:xlink="http://www.w3.org/1999/xlink" x="0px" y="0px"
	 viewBox="0 0 1000 1000" style="enable-background:new 0 0 1000 1000;" xml:space="preserve">
<style type="text/css">
	.st0{fill:#babfc3;}
</style>
	<g>
	<g>

		<path class="st0" d="M500.3,24c233.4-7,479.6,184.3,477.7,480.9C976.4,769,765.3,980.6,495.2,978.2
			c-277.7-2.5-488.7-237-471.6-508.6C39.9,210.1,262.6,17.7,500.3,24z M103,500.4c0,217.8,177.4,398.4,391.4,398.5
			c223.2,0.2,403.6-175.4,404.7-392.1c1.2-223.9-175.5-401.4-390.3-403.4C281.6,101.4,103,277.8,103,500.4z"/>

		<path class="st0" d="M605.8,730.2c-34.3-59.3-68.4-118.3-102.5-177.2c-28.2-48.5-56.2-97.2-84.7-145.5c-20.2-34.1-21-66.8,3.9-99
			c8.2-10.7,14.9-22.5,22.8-33.4c0.8-1.1,6.4-0.9,7.1,0.2c67.6,116.1,135,232.4,201.8,349c3.3,5.7,2.8,16.5-0.4,22.5
			C638.5,675,621.9,702.4,605.8,730.2z"/>
		<path class="st0" d="M239.8,362.3c28.8,0,57.4-1.7,85.6,0.6c19.8,1.6,33,16.3,42.7,33.1c43.9,76.2,87.7,152.4,130.9,228.9
			c2.5,4.5,2.4,12.8,0,17.4c-14.5,26.8-29.9,53.1-45.4,79.3c-0.7,1.2-6.9,1.3-7.5,0.1c-68.2-117.9-136.1-235.9-204-354
			C241,365.8,240.4,363.6,239.8,362.3z"/>
		<path class="st0" d="M760.6,359.7C725.1,421.1,690,482,654.3,543.7c-22.1-38-43.7-75.3-65.3-112.5c-4.9-8.5-10-16.9-14.5-25.6
			c-12-22.9,1.7-45.9,27.5-46c50.9-0.2,101.9-0.2,152.8-0.3C756.5,359.4,758.1,359.5,760.6,359.7z"/>
	</g>
</g>
</svg>
